 http://img148.imageshack.us/img148/3005/430463.jpg

Country.......: USA
Genre.........: Romance, Drama
Date release..: 20.01.2009 [World]
Director......: Max Mayer
Writers.......: Max Mayer
Duration......: 95 min.
More..........: http://www.imdb.com/title/tt1185836
Trailer.......: http://www.imdb.com/video/imdb/vi230031897
Trailer.......:

Pilot :
Adam, a lonely man with Asperger's Syndrome, develops a relationship with his upstairs neighbor, Beth.

Cats :
Hugh Dancy   	 ...  	Adam Raki
Rose Byrne 	... 	Beth Buchwald
Peter Gallagher 	... 	Marty Buchwald
Amy Irving 	... 	Rebecca Buchwald
Frankie Faison 	... 	Harlan
Mark Linn Baker 	... 	Sam Klieber
Haviland Morris 	... 	Lyra
Adam LeFevre 	... 	Mr. Wardlow
Mike Hodge 	... 	Judge
Peter OHara 	... 	Williams
John Rothman 	... 	Beranbaum
Terry Walters 	... 	Michael
Susan Porro 	... 	Jen
Maddie Corman 	... 	Robin
Jeff Hiller 	... 	Rom 

Data Technical :
!!! SAMPLE !!!
Audio.....: Lector Polish
Subtitles.: None
Format                           : AVI
Format/Info                      : Audio Video Interleave
File size                        : 691 MiB
Duration                         : 1h 34mn
Overall bit rate                 : 1 019 Kbps
Writing application              : MEncoder SVN-r1.0~rc3+svn20090426-4.4.3
Writing library                  : MPlayer
Video
ID                               : 0
Format                           : MPEG-4 Visual
Format profile                   : Advanced Simple@L5
Format settings, BVOP            : Yes
Format settings, QPel            : No
Format settings, GMC             : No warppoints
Format settings, Matrix          : Default (H.263)
Codec ID                         : XVID
Codec ID/Hint                    : XviD
Duration                         : 1h 34mn
Bit rate                         : 887 Kbps
Width                            : 640 pixels
Height                           : 272 pixels
Display aspect ratio             : 2.35:1
Frame rate                       : 25.000 fps
Original frame rate              : 23.976 fps
Color space                      : YUV
Chroma subsampling               : 4:2:0
Bit depth                        : 8 bits
Scan type                        : Progressive
Bits/(Pixel*Frame)               : 0.204
Stream size                      : 602 MiB (87%)
Writing library                  : XviD 1.2.1 (UTC 2008-12-04)
Audio
ID                               : 1
Format                           : MPEG Audio
Format version                   : Version 1
Format profile                   : Layer 3
Codec ID                         : 55
Codec ID/Hint                    : MP3
Duration                         : 1h 33mn
Bit rate mode                    : Constant
Bit rate                         : 128 Kbps
Channel(s)                       : 2 channels
Sampling rate                    : 48.0 KHz
Video delay                      : 12ms
Stream size                      : 85.9 MiB (12%)
Alignment                        : Split accross interleaves
Interleave, duration             : 506 ms (12.64 video frames)
Interleave, preload duration     : 500 ms

Screen : 
http://img838.imageshack.us/img838/9858/adam2009s1.jpg 
http://img19.imageshack.us/img19/1483/adam2009s2.jpg 
http://img812.imageshack.us/img812/1125/adam2009s3.jpg 
http://img843.imageshack.us/img843/9374/adam2009s4.jpg 
http://img706.imageshack.us/img706/3547/adam2009s5.jpg